<svg xmlns="http://www.w3.org/2000/svg" viewBox="0 0 338.17 187.94">
    <path fill="#333" d="M.43.43h337.32v187.09H.43z" data-name="Layer 4"/>
    <g fill="#fff">
        <path d="M208 152.26h5.59a5.32 5.32 0 0 1 2.2.39 3.45 3.45 0 0 1 1.31 1 3.26 3.26 0 0 1 .63 1.28 5.57 5.57 0 0 1 .17 1.28 5.49 5.49 0 0 1-.17 1.27 3.25 3.25 0 0 1-.63 1.26 3.35 3.35 0 0 1-1.31 1 5.33 5.33 0 0 1-2.2.38h-3.37v4.86H208zm2.22 6h3.21a2.94 2.94 0 0 0 .76-.1 2.19 2.19 0 0 0 .72-.35 1.88 1.88 0 0 0 .53-.64 2.25 2.25 0 0 0 .2-1 2.57 2.57 0 0 0-.18-1 1.59 1.59 0 0 0-.47-.65 1.79 1.79 0 0 0-.7-.32 3.64 3.64 0 0 0-.83-.09h-3.28zM219.83 152.26h6a4.72 4.72 0 0 1 3.14.9 3.17 3.17 0 0 1 1 2.52 3.66 3.66 0 0 1-.27 1.5 3.39 3.39 0 0 1-.62 1 2.58 2.58 0 0 1-.7.52 3.46 3.46 0 0 1-.51.21 1.91 1.91 0 0 1 .61.18 1.72 1.72 0 0 1 .62.45 2.62 2.62 0 0 1 .47.81 3.65 3.65 0 0 1 .18 1.24 11.48 11.48 0 0 0 .17 2 2.69 2.69 0 0 0 .52 1.3h-2.37a2 2 0 0 1-.3-.9v-1a8.21 8.21 0 0 0-.11-1.5 2.61 2.61 0 0 0-.39-1 1.62 1.62 0 0 0-.77-.61 3.39 3.39 0 0 0-1.25-.19h-3.26v5.21h-2.16zm2.22 5.76h3.63a2.36 2.36 0 0 0 1.62-.5 2 2 0 0 0 .55-1.52 2.29 2.29 0 0 0-.18-1 1.4 1.4 0 0 0-.49-.6 1.79 1.79 0 0 0-.71-.28 4.39 4.39 0 0 0-.82-.07h-3.6zM232.18 152.26h2.25v7.38q0 .63.06 1.29a3 3 0 0 0 .36 1.18 2.17 2.17 0 0 0 .89.86 3.44 3.44 0 0 0 1.67.34 3.51 3.51 0 0 0 1.68-.34 2.21 2.21 0 0 0 .88-.86 2.86 2.86 0 0 0 .36-1.18q.06-.66.06-1.29v-7.38h2.22v8.1a5.71 5.71 0 0 1-.37 2.13 4.13 4.13 0 0 1-1.06 1.52 4.3 4.3 0 0 1-1.64.91 7.71 7.71 0 0 1-4.26 0 4.45 4.45 0 0 1-1.64-.91 4.22 4.22 0 0 1-1-1.52 5.52 5.52 0 0 1-.37-2.13zM246.58 160.7a2.89 2.89 0 0 0 .24 1.24 2.21 2.21 0 0 0 .7.84 2.83 2.83 0 0 0 1 .48 4.92 4.92 0 0 0 1.25.15 4.15 4.15 0 0 0 1.24-.16 2.59 2.59 0 0 0 .83-.44 1.57 1.57 0 0 0 .46-.61 1.72 1.72 0 0 0 .14-.7 1.54 1.54 0 0 0-.32-1.07 1.75 1.75 0 0 0-.72-.49 15.05 15.05 0 0 0-1.57-.47l-2.21-.58a4.76 4.76 0 0 1-1.36-.56 3.24 3.24 0 0 1-.86-.77 2.72 2.72 0 0 1-.45-.9 3.62 3.62 0 0 1-.13-1 3.27 3.27 0 0 1 .4-1.66 3.64 3.64 0 0 1 1.05-1.16 4.71 4.71 0 0 1 1.49-.68 6.48 6.48 0 0 1 1.69-.22 6.7 6.7 0 0 1 1.87.25 4.66 4.66 0 0 1 1.54.78 3.62 3.62 0 0 1 1.45 3h-2.22a2.17 2.17 0 0 0-.83-1.73 3.3 3.3 0 0 0-1.9-.5 3.68 3.68 0 0 0-.8.08 2.5 2.5 0 0 0-.74.26 1.53 1.53 0 0 0-.56.51 1.52 1.52 0 0 0 .17 1.84 2.64 2.64 0 0 0 1.09.58l.56.15 1.09.29 1.18.31.83.22a3.88 3.88 0 0 1 1.08.53 3.55 3.55 0 0 1 .77.78 3.11 3.11 0 0 1 .46.93 3.4 3.4 0 0 1 .15 1 3.58 3.58 0 0 1-.43 1.82 3.76 3.76 0 0 1-1.15 1.23 5 5 0 0 1-1.61.7 7.62 7.62 0 0 1-1.85.22 7.92 7.92 0 0 1-2-.26 4.78 4.78 0 0 1-1.66-.82 3.88 3.88 0 0 1-1.14-1.41 4.71 4.71 0 0 1-.44-2zM260 152.26h2.36l4.88 12.66h-2.38l-1.19-3.35h-5.05l-1.19 3.35h-2.29zm-.78 7.62h3.87l-1.9-5.44h-.05zM274.83 160.7a2.74 2.74 0 0 0 .25 1.24 2.1 2.1 0 0 0 .69.84 2.83 2.83 0 0 0 1 .48 4.92 4.92 0 0 0 1.25.15 4.1 4.1 0 0 0 1.24-.16 2.59 2.59 0 0 0 .83-.44 1.48 1.48 0 0 0 .46-.61 1.73 1.73 0 0 0 .15-.7 1.49 1.49 0 0 0-.27-1.07 1.75 1.75 0 0 0-.72-.49 14.35 14.35 0 0 0-1.57-.47l-2.21-.58a4.88 4.88 0 0 1-1.36-.56 3 3 0 0 1-.85-.77 2.57 2.57 0 0 1-.46-.9 3.62 3.62 0 0 1-.13-1 3.27 3.27 0 0 1 .4-1.66 3.64 3.64 0 0 1 1.05-1.16 4.71 4.71 0 0 1 1.49-.68 6.48 6.48 0 0 1 1.69-.22 6.7 6.7 0 0 1 1.87.25 4.57 4.57 0 0 1 1.54.78 3.68 3.68 0 0 1 1.06 1.26 3.79 3.79 0 0 1 .39 1.75h-2.22a2.17 2.17 0 0 0-.83-1.73 3.3 3.3 0 0 0-1.9-.5 3.68 3.68 0 0 0-.8.08 2.5 2.5 0 0 0-.74.26 1.61 1.61 0 0 0-.56.51 1.35 1.35 0 0 0-.22.8 1.38 1.38 0 0 0 .41 1 2.64 2.64 0 0 0 1.09.58l.56.15 1.09.29 1.18.31.83.22a3.88 3.88 0 0 1 1.08.53 3.55 3.55 0 0 1 .77.78 3.11 3.11 0 0 1 .46.93 3.4 3.4 0 0 1 .15 1 3.58 3.58 0 0 1-.43 1.82 3.66 3.66 0 0 1-1.15 1.23 5 5 0 0 1-1.61.7 7.59 7.59 0 0 1-1.84.22 7.8 7.8 0 0 1-2-.26 4.74 4.74 0 0 1-1.67-.82 4 4 0 0 1-1.14-1.41 4.71 4.71 0 0 1-.44-2zM284.86 152.26h2.22v10.75h6.44v1.91h-8.66zM294.64 154.56a7.24 7.24 0 0 0 1.24-.1 3.78 3.78 0 0 0 1.09-.36 2.6 2.6 0 0 0 .83-.64 2 2 0 0 0 .46-.95h1.64v12.41h-2.21v-8.76h-3.05z"/>
        <g data-name="MTEXT">
            <path d="M211.92 140.96a4 4 0 0 1 3.14 1.38 4.72 4.72 0 0 1 .84 1.49 5.55 5.55 0 0 1 .29 1.79 5.63 5.63 0 0 1-.29 1.81 4.72 4.72 0 0 1-.84 1.49 4 4 0 0 1-1.35 1 4.09 4.09 0 0 1-1.79.37 4.15 4.15 0 0 1-1.79-.37 4 4 0 0 1-1.34-1 4.72 4.72 0 0 1-.84-1.49 5.63 5.63 0 0 1-.29-1.81 5.55 5.55 0 0 1 .29-1.79 4.72 4.72 0 0 1 .84-1.49 4 4 0 0 1 3.13-1.38zm0 1.27a2.54 2.54 0 0 0-1.23.29 2.45 2.45 0 0 0-.84.76 3.9 3.9 0 0 0-.48 1.1 5.13 5.13 0 0 0-.15 1.24 5.22 5.22 0 0 0 .15 1.25 3.72 3.72 0 0 0 .48 1.09 2.48 2.48 0 0 0 .84.77 2.54 2.54 0 0 0 1.23.29 2.49 2.49 0 0 0 1.23-.29 2.31 2.31 0 0 0 .84-.77 3.49 3.49 0 0 0 .49-1.09 5.22 5.22 0 0 0 .15-1.25 5.13 5.13 0 0 0-.15-1.24 3.66 3.66 0 0 0-.49-1.1 2.28 2.28 0 0 0-.84-.76 2.49 2.49 0 0 0-1.23-.29zM217.61 141.17h4.26a3.25 3.25 0 0 1 2.2.64 2.21 2.21 0 0 1 .74 1.77 2.5 2.5 0 0 1-.19 1 2.34 2.34 0 0 1-.43.68 1.57 1.57 0 0 1-.5.36 2.35 2.35 0 0 1-.35.15 1.66 1.66 0 0 1 .43.12 1.42 1.42 0 0 1 .43.32 1.94 1.94 0 0 1 .33.57 2.42 2.42 0 0 1 .13.87 7.79 7.79 0 0 0 .12 1.43 1.89 1.89 0 0 0 .37.92h-1.67a1.43 1.43 0 0 1-.21-.64v-.67a6.45 6.45 0 0 0-.08-1.06 1.85 1.85 0 0 0-.27-.73 1.14 1.14 0 0 0-.54-.43 2.26 2.26 0 0 0-.95-.04h-2.3v3.67h-1.56zm1.56 4h2.56a1.58 1.58 0 0 0 1.13-.35 1.38 1.38 0 0 0 .39-1.07 1.71 1.71 0 0 0-.12-.69 1 1 0 0 0-.35-.42 1.31 1.31 0 0 0-.5-.2 3.58 3.58 0 0 0-.58-.05h-2.53zM226.43 141.17h1.56v8.91h-1.56zM237.63 150.08h-1l-.2-1.05a3.7 3.7 0 0 1-1.25 1 3.41 3.41 0 0 1-1.43.28 4.09 4.09 0 0 1-1.79-.37 3.83 3.83 0 0 1-1.34-1 4.56 4.56 0 0 1-.85-1.49 5.63 5.63 0 0 1-.29-1.81 5.55 5.55 0 0 1 .29-1.79 4.56 4.56 0 0 1 .85-1.49 4 4 0 0 1 1.34-1 4.09 4.09 0 0 1 1.79-.37 4.84 4.84 0 0 1 1.38.19 3.61 3.61 0 0 1 1.16.58 3.11 3.11 0 0 1 .85.95 3.26 3.26 0 0 1 .42 1.32h-1.52a1.81 1.81 0 0 0-.27-.76 1.83 1.83 0 0 0-.51-.56 2.52 2.52 0 0 0-.7-.34 3.1 3.1 0 0 0-.81-.11 2.49 2.49 0 0 0-1.23.29 2.28 2.28 0 0 0-.84.76 3.41 3.41 0 0 0-.48 1.1 4.69 4.69 0 0 0-.16 1.24 4.76 4.76 0 0 0 .16 1.25 3.26 3.26 0 0 0 .48 1.09 2.31 2.31 0 0 0 .84.77 2.49 2.49 0 0 0 1.23.29 2.92 2.92 0 0 0 1.06-.16 2.11 2.11 0 0 0 .78-.49 2.06 2.06 0 0 0 .48-.78 3.2 3.2 0 0 0 .17-1h-2.37v-1.19h3.79zM239.33 141.17h1.56v8.91h-1.56zM242.73 141.17h1.7l4 6.56v-6.56h1.49v8.91h-1.65l-4-6.55v6.55h-1.54zM254.19 141.17h1.66l3.43 8.91h-1.68l-.83-2.36h-3.56l-.83 2.36h-1.61zm-.55 5.36h2.72l-1.34-3.83zM260.12 141.17h1.56v7.56h4.53v1.35h-6.09z"/>
        </g>
    </g>
    <path stroke-width=".85" stroke="#fff" stroke-linecap="round" stroke-linejoin="round" fill="none" d="M.43.43h337.32v187.09H.43z" data-name="5cm"/>
    <g data-name="1cm">
        <path stroke-width=".14" stroke="#fff" stroke-linecap="round" stroke-linejoin="round" fill="none" d="M.43 54.29h337.32M.43 82.63h337.32M.43 110.98h337.32M.43 139.32h337.32M.43 167.67h337.32" data-name="POLYLINE"/>
        <path stroke-width=".14" stroke="#fff" stroke-linecap="round" stroke-linejoin="round" fill="#fff" d="M198.85 187.51V.43" data-name="POLYLINE"/>
        <path stroke-width=".14" stroke="#fff" stroke-linecap="round" stroke-linejoin="round" fill="none" d="M170.5 187.51V.43M312.23 187.51V.43M142.16 187.51V.43M113.81 187.51V.43M85.46 187.51V.43M28.77 187.51V.43M57.12 187.51V.43" data-name="POLYLINE"/>
        <path stroke-width=".14" stroke="#fff" stroke-linecap="round" stroke-linejoin="round" fill="#fff" d="M227.19 187.51v-19.84" data-name="POLYLINE"/>
        <path stroke-width=".14" stroke="#fff" stroke-linecap="round" stroke-linejoin="round" fill="none" d="M227.19 139.32V.43" data-name="POLYLINE"/>
        <path stroke-width=".14" stroke="#fff" stroke-linecap="round" stroke-linejoin="round" fill="#fff" d="M255.54 187.51v-19.84" data-name="POLYLINE"/>
        <path stroke-width=".14" stroke="#fff" stroke-linecap="round" stroke-linejoin="round" fill="none" d="M255.54 139.32V.43" data-name="POLYLINE"/>
        <path stroke-width=".14" stroke="#fff" stroke-linecap="round" stroke-linejoin="round" fill="#fff" d="M283.88 187.51v-19.84" data-name="POLYLINE"/>
        <path stroke-width=".14" stroke="#fff" stroke-linecap="round" stroke-linejoin="round" fill="none" d="M283.88 139.32V.43M.43 25.94h337.32" data-name="POLYLINE"/>
    </g>
</svg>
